<?xml version="1.0" standalone="no"?>
<!DOCTYPE svg PUBLIC "-//W3C//DTD SVG 20010904//EN"
 "http://www.w3.org/TR/2001/REC-SVG-20010904/DTD/svg10.dtd">
<svg version="1.0" xmlns="http://www.w3.org/2000/svg"
 width="512.000000pt" height="512.000000pt" viewBox="0 0 512.000000 512.000000"
 preserveAspectRatio="xMidYMid meet">
<metadata>
Created by potrace 1.14, written by Peter Selinger 2001-2017
</metadata>
<g transform="translate(0.000000,512.000000) scale(0.100000,-0.100000)"
fill="#000000" stroke="none">
<path d="M600 5109 c0 -5 -4 -8 -8 -5 -5 3 -33 -2 -63 -10 -30 -8 -62 -17 -73
-19 -10 -2 -23 -9 -30 -14 -6 -5 -13 -9 -16 -10 -17 -1 -82 -34 -120 -62 -53
-38 -150 -130 -150 -142 0 -4 -9 -17 -20 -29 -10 -12 -17 -25 -14 -30 3 -4 1
-8 -5 -8 -6 0 -17 -15 -25 -32 -26 -57 -56 -138 -51 -138 3 0 -1 -13 -10 -30
-13 -26 -15 -255 -15 -2022 l1 -1993 23 -70 c29 -86 47 -128 61 -137 5 -4 6
-8 2 -8 -15 0 64 -102 123 -161 51 -50 164 -128 193 -133 7 -1 22 -7 34 -14
12 -7 32 -14 45 -16 13 -3 23 -5 23 -6 0 -12 337 -15 2044 -17 l2005 -3 89 31
c50 17 106 41 126 52 61 35 141 101 141 116 0 8 3 12 6 8 17 -16 149 180 157
233 2 8 5 20 9 25 3 6 9 26 14 45 4 19 10 42 13 50 3 8 7 897 8 1975 3 1801 2
1966 -13 2030 -9 39 -23 82 -30 96 -7 15 -10 29 -7 33 4 3 1 6 -5 6 -7 0 -11
3 -10 8 4 11 -26 72 -34 72 -5 0 -8 5 -8 11 0 11 -50 77 -95 124 -71 76 -217
157 -329 181 -11 3 -32 8 -46 11 -46 12 -3940 14 -3940 2z"/>
</g>
</svg>
